<svg id="Layer_1" height="512" viewBox="0 0 128 128" width="512" xmlns="http://www.w3.org/2000/svg" data-name="Layer 1"><path d="m49.8 50.439h7.578v17.806a1.75 1.75 0 0 0 1.747 1.755h9.75a1.75 1.75 0 0 0 1.75-1.75v-17.811h7.575a1.75 1.75 0 0 0 1.75-1.75v-9.75a1.75 1.75 0 0 0 -1.75-1.75h-7.575v-7.25a1.75 1.75 0 0 0 -1.75-1.75h-9.75a1.75 1.75 0 0 0 -1.75 1.75v7.25h-7.575a1.75 1.75 0 0 0 -1.75 1.75v9.75a1.75 1.75 0 0 0 1.75 1.75zm1.75-9.75h7.578a1.75 1.75 0 0 0 1.75-1.75v-7.25h6.25v7.25a1.75 1.75 0 0 0 1.75 1.75h7.578v6.25h-7.581a1.75 1.75 0 0 0 -1.75 1.75v17.811h-6.25v-17.811a1.75 1.75 0 0 0 -1.75-1.75h-7.578z"/><path d="m99.225 10.75h-61.039a11.173 11.173 0 0 0 -11.16 11.16v77.36a9.23 9.23 0 0 0 9.219 9.22h35.78v7.01a1.75 1.75 0 0 0 2.812 1.392l6.131-4.677 6.131 4.677a1.75 1.75 0 0 0 2.812-1.392v-7.01h9.315a1.75 1.75 0 0 0 1.75-1.75v-94.24a1.75 1.75 0 0 0 -1.751-1.75zm-61.039 3.5h59.289v75.8h-61.23a9.167 9.167 0 0 0 -5.719 2v-70.14a7.669 7.669 0 0 1 7.66-7.66zm-1.941 90.74a5.719 5.719 0 1 1 0-11.438h61.23v3.963l-57.628-.179h-.005a1.75 1.75 0 0 0 -.005 3.5l32.189.1v4.054zm45.784 3.632a1.749 1.749 0 0 0 -2.123 0l-4.381 3.342v-11.017l10.885.034v10.983zm7.881-3.632v-4l7.565.023v3.975z"/></svg>