<?xml version="1.0" encoding="UTF-8"?>
<svg width="108px" height="92px" viewBox="0 0 108 92" version="1.1" xmlns="http://www.w3.org/2000/svg" xmlns:xlink="http://www.w3.org/1999/xlink">
    <!-- Generator: Sketch 41.2 (35397) - http://www.bohemiancoding.com/sketch -->
    <title>home</title>
    <desc>Created with Sketch.</desc>
    <defs></defs>
    <g id="Page-2" stroke="none" stroke-width="1" fill="none" fill-rule="evenodd">
        <g id="icons" transform="translate(-1202.000000, -1206.000000)" fill="#2E323F">
            <g id="home" transform="translate(1202.000000, 1206.000000)">
                <path d="M106.476813,36.510929 L55.6488406,0.56557377 C54.591498,-0.18852459 53.1565329,-0.18852459 52.0991903,0.56557377 L1.29639307,36.510929 C-0.0882223121,37.4912568 -0.415495039,39.4016393 0.566323142,40.784153 C1.54814132,42.1666667 3.46142804,42.4934426 4.84604342,41.5131148 L7.84184762,39.4016393 L7.84184762,88.468306 C7.84184762,90.152459 9.226463,91.5349727 10.9131763,91.5349727 L41.6012882,91.5349727 C43.2880015,91.5349727 44.6726168,90.152459 44.6726168,88.468306 L44.6726168,60.868306 L63.0754141,60.868306 L63.0754141,88.4431694 C63.0754141,90.1273224 64.4600294,91.5098361 66.1467427,91.5098361 L96.8348546,91.5098361 C98.5215679,91.5098361 99.9061833,90.1273224 99.9061833,88.4431694 L99.9061833,39.3765027 L102.901987,41.4879781 C103.430659,41.8650273 104.060029,42.0409836 104.664225,42.0409836 C105.620869,42.0409836 106.577512,41.5885246 107.181708,40.7590164 C108.163526,39.4016393 107.861428,37.4912568 106.476813,36.510929 Z M93.7887008,85.3765027 L69.2432462,85.3765027 L69.2432462,57.8016393 C69.2432462,56.1174863 67.8586308,54.7349727 66.1719175,54.7349727 L41.626463,54.7349727 C39.9397497,54.7349727 38.5551343,56.1174863 38.5551343,57.8016393 L38.5551343,85.3765027 L13.984505,85.3765027 L13.984505,35.0530055 L53.8866029,6.82459016 L93.7887008,35.0530055 L93.7887008,85.3765027 Z" id="Shape"></path>
            </g>
        </g>
    </g>
</svg>