<svg height="512pt" viewBox="-43 0 512 512.06445" width="512pt" xmlns="http://www.w3.org/2000/svg"><path d="m426.265625 506.226562c1.160156-3.484374-.039063-7.320312-2.980469-9.523437-27.839844-20.335937-51.710937-45.617187-70.417968-74.578125-11.511719-18.070312-20.03125-37.882812-25.222657-58.667969-2.277343-10.539062-3.832031-21.21875-4.652343-31.964843-.417969-4.132813-.851563-8.246094-1.3125-12.359376l-11.179688-93.789062c-2.695312-21.9375-5.339844-43.90625-7.925781-65.910156l-1.117188-9.429688c-1.265625-10.300781-2.5625-27.359375-3.765625-43.84375-1.246094-16.691406-2.558594-33.953125-3.832031-44.597656l-3.691406-30.992188v-.503906c0-.144531 0-.289062-.0625-.433594-1.828125-13.277343-11.21875-24.273437-24.042969-28.160156-12.828125-3.882812-26.742188.054688-35.628906 10.085938-6.457032 7.195312-9.554688 16.789062-8.535156 26.402344l16.855468 184.910156c-8.128906 1.710937-15.585937 5.734375-21.480468 11.585937-1.417969 1.511719-2.726563 3.117188-3.914063 4.8125-5.9375-8.628906-15.074219-14.53125-25.378906-16.398437l16.800781-184.730469c1.539062-14.050781-5.691406-27.609375-18.214844-34.164063-12.523437-6.554687-27.785156-4.769531-38.453125 4.5-6.222656 5.457032-10.285156 12.960938-11.453125 21.15625-.027344.132813-.042968.265626-.050781.402344 0 .167969 0 .355469-.070313.535156l-3.667968 30.933594c-1.296875 10.691406-2.558594 27.957032-3.832032 44.648438-1.226562 16.484375-2.5 33.542968-3.761718 43.867187l-1.117188 9.386719c-2.617187 21.964844-5.261718 43.945312-7.929687 65.9375l-11.179688 93.789062c-.484375 4.105469-.851562 8.21875-1.3125 12.347657-.820312 10.753906-2.375 21.4375-4.652343 31.976562-5.1875 20.777344-13.703126 40.578125-25.214844 58.640625-18.703125 28.972656-42.578125 54.261719-70.425782 74.605469-2.9375 2.207031-4.136718 6.042969-2.976562 9.527344 1.164062 3.484375 4.425781 5.832031 8.097656 5.832031h162.132813c3.667969 0 6.921875-2.339844 8.089843-5.816406l5.8125-17.339844c1.015626-3.171875 2.976563-5.957031 5.613282-7.988281 9.726562-7.066407 17.65625-16.316407 23.152344-27.007813 5.460937 10.65625 13.351562 19.878906 23.039062 26.921875 2.691406 2.046875 4.695312 4.871094 5.734375 8.089844l5.800781 17.324219c1.167969 3.476562 4.425782 5.816406 8.089844 5.816406h162.136719c3.671875.003906 6.933593-2.347656 8.097656-5.835938zm-246.179687-39.046874c-5.46875 4.117187-9.542969 9.8125-11.671876 16.316406l-3.859374 11.5h-131.796876c21.589844-18.398438 40.320313-39.910156 55.578126-63.828125 12.472656-19.625 21.691406-41.136719 27.304687-63.699219 2.46875-11.296875 4.152344-22.75 5.046875-34.28125.398438-4.019531.800781-8.039062 1.269531-12.023438l11.195313-93.753906c2.6875-21.964844 5.308594-44 7.929687-65.972656l1.117188-9.386719c1.296875-10.691406 2.558593-27.953125 3.832031-44.644531 1.226562-16.496094 2.5-33.554688 3.761719-43.898438l3.667969-30.972656v-.144531l.050781-.359375c.589843-4.128906 2.652343-7.902344 5.804687-10.632812 7.21875-5.976563 17.84375-5.285157 24.226563 1.578124 3.285156 3.65625 4.824219 8.554688 4.222656 13.429688l-17.066406 187.136719c-1.40625.441406-2.765625 1.011719-4.0625 1.707031-8.042969 4.53125-13.015625 13.050781-13.003907 22.28125v128c0 4.710938 3.820313 8.53125 8.535157 8.53125 4.710937 0 8.53125-3.820312 8.53125-8.53125v-128c.007812-3.128906 1.726562-6 4.480469-7.484375 1.230468-.714844 2.632812-1.074219 4.054687-1.050781 6.792969-.011719 13.3125 2.679687 18.117187 7.484375 4.800782 4.804687 7.496094 11.324219 7.480469 18.117187v154.28125c-.046875 19.132813-9.246093 37.085938-24.746093 48.300782zm82.089843 27.816406-3.847656-11.484375c-2.152344-6.550781-6.269531-12.285157-11.792969-16.417969-15.441406-11.214844-24.597656-29.128906-24.636718-48.214844v-154.28125c-.011719-6.792968 2.679687-13.3125 7.484374-18.117187 4.804688-4.804688 11.324219-7.496094 18.117188-7.484375 1.480469-.019532 2.9375.375 4.207031 1.136718 2.675781 1.5 4.328125 4.332032 4.324219 7.398438v128c0 4.710938 3.820312 8.53125 8.535156 8.53125 4.710938 0 8.53125-3.820312 8.53125-8.53125v-128c.007813-9.1875-4.933594-17.664062-12.925781-22.1875-1.347656-.722656-2.757813-1.3125-4.214844-1.765625l-17.066406-187.324219c-.566406-4.839844.992187-9.6875 4.265625-13.292968 6.386719-6.875 17.035156-7.5625 24.25-1.5625 3.152344 2.742187 5.203125 6.53125 5.777344 10.664062v.472656l3.671875 31.027344c1.261719 10.289062 2.558593 27.347656 3.761719 43.84375 1.246093 16.691406 2.558593 33.953125 3.832031 44.621094l1.117187 9.386718c2.621094 21.972657 5.238282 44.003907 7.925782 65.945313l11.179687 93.761719c.480469 4.003906.855469 8.023437 1.28125 12.042968.890625 11.523438 2.574219 22.96875 5.042969 34.261719 5.609375 22.574219 14.832031 44.097657 27.304687 63.734375 15.285157 23.925782 34.050781 45.441406 55.671875 63.835938zm0 0"/></svg>